<svg xmlns="http://www.w3.org/2000/svg" version="1.1" xmlns:xlink="http://www.w3.org/1999/xlink" xmlns:svgjs="http://svgjs.com/svgjs" width="100%" height="100%" viewBox="125 195 770 210"><rect width="1000" height="600" x="0" y="0" fill="none"/><g><circle r="166.66666666666666" cx="432.30338541666663" cy="454.5256162573496" fill="#2d3d5c" transform="matrix(0.4705674749643398,0,0,0.4705674749643398,0,86.11503323802839)"/><path d="M398.5601867483629 417.96764202650695L396.471180325998 398.12208101404Q401.2875006886727 389.3598596313426 409.20831670680644 384.42748335631427Q417.1581467030286 379.52412105937435 427.4000809682345 379.52412105937435L427.4000809682345 379.52412105937435Q446.4042366161377 379.52412105937435 457.2554644212001 388.9246499600166Q468.1357062043508 398.3251788606588 468.1357062043508 415.0372302395784L468.1357062043508 415.0372302395784Q468.1357062043508 423.59635377565695 464.8861406584498 430.095484867459Q461.63657511254877 436.5656019811726 456.73321281560885 441.9912158837038Q451.82985051866893 447.4168297862349 446.49127855040297 452.23315014890966Q441.1817205602254 457.020456533496 437.0037077154955 462.03987474278955Q432.82569487076563 467.05929295208307 431.1428841416383 472.9201165259403L431.1428841416383 472.9201165259403Q430.30147877707464 476.2567240061065 429.7792271714834 479.3902336396539Q429.25697556589216 482.5237432732013 430.01133899619066 485.65725290674874Q430.7366884484007 488.79076254029616 433.23189056400327 492.12737002046237L433.23189056400327 492.12737002046237L431.984289506202 493.17187323164484Q426.55867560367085 488.1524550223513 424.6727670279247 483.1330368130578Q422.78685845217854 478.14263258185264 422.78685845217854 473.12321437255906L422.78685845217854 473.12321437255906Q422.78685845217854 467.2623907987019 425.83332615146077 462.03987474278955Q428.8507798726546 456.8173586868772 433.23189056400327 451.7108985433184Q437.61300125535195 446.5754244216713 442.02312592478904 441.1498105191401Q446.4042366161377 435.72419661660894 449.4216903373316 429.2540795028953Q452.4681580366138 422.7839623891817 452.4681580366138 415.0372302395784L452.4681580366138 415.0372302395784Q452.4681580366138 401.2555906475874 445.76592909819294 393.5378724760725Q439.09271413786047 385.7911403264692 427.4000809682345 385.7911403264692L427.4000809682345 385.7911403264692Q414.86604243404486 385.7911403264692 407.64156189003273 394.35026386254776Q400.446095324109 402.93840137671475 400.64919317072787 417.96764202650695L400.64919317072787 417.96764202650695L398.5601867483629 417.96764202650695ZM429.89528308383706 529.5263877764125L429.89528308383706 529.5263877764125Q425.92036808572595 529.5263877764125 423.2220681235046 526.7990738361027Q420.4947541831948 524.1007738738813 420.4947541831948 520.1258588757703L420.4947541831948 520.1258588757703Q420.4947541831948 516.1509438776593 423.2220681235046 513.4236299373495Q425.92036808572595 510.72532997512803 429.89528308383706 510.72532997512803L429.89528308383706 510.72532997512803Q433.8701980819481 510.72532997512803 436.5684980441695 513.4236299373495Q439.29581198447926 516.1509438776593 439.29581198447926 520.1258588757703L439.29581198447926 520.1258588757703Q439.29581198447926 524.1007738738813 436.5684980441695 526.7990738361027Q433.8701980819481 529.5263877764125 429.89528308383706 529.5263877764125Z " fill="#f7f7f7" transform="matrix(0.4705674749643398,0,0,0.4705674749643398,0,86.11503323802839)"/><path d="M722.5466844044449 382.9813236384728L732.72693705272 382.9813236384728L732.72693705272 492.1362548116445L722.5466844044449 492.1362548116445L722.5466844044449 382.9813236384728ZM682.3042326965199 382.35049601710534L772.9911414372439 382.35049601710534L772.9911414372439 387.04907416246306L682.3042326965199 387.04907416246306L682.3042326965199 382.35049601710534ZM762.1800611676013 386.57051527728777L772.9911414372439 386.57051527728777L772.9911414372439 399.25232573443384L771.4249487221246 399.1000569982417L771.4249487221246 396.44623045317854Q771.4249487221246 392.53074866538043 768.6841114706659 389.8551694437184Q765.9432742192073 387.2013428986552 762.1800611676013 387.04907416246306L762.1800611676013 387.04907416246306L762.1800611676013 386.57051527728777ZM772.9911414372439 379.52264805925114L772.9911414372439 379.52264805925114L772.9911414372439 384.0689574684167L753.8705387068298 382.35049601710534Q757.3292142860514 382.35049601710534 761.1576853674541 381.87193713193005Q765.0079091254555 381.41513092335356 768.2925632918862 380.7843033019861Q771.5772174583168 380.1534756806186 772.9911414372439 379.52264805925114ZM722.5466844044449 480.6943469206345L723.0252432896202 480.6943469206345L723.0252432896202 492.1362548116445L710.4957015686663 492.1362548116445L710.4957015686663 490.57006209652525Q710.4957015686663 490.57006209652525 711.5180773688136 490.57006209652525Q712.5404531689609 490.57006209652525 712.5404531689609 490.57006209652525L712.5404531689609 490.57006209652525Q716.6082036929511 490.57006209652525 719.5013096806019 487.67695610887444Q722.3944156682528 484.7838501212236 722.5466844044449 480.6943469206345L722.5466844044449 480.6943469206345ZM732.2701308441435 492.1362548116445L732.2701308441435 480.6943469206345L732.72693705272 480.6943469206345Q732.900958465511 484.7838501212236 735.7940644531618 487.67695610887444Q738.6871704408127 490.57006209652525 742.754920964803 490.57006209652525L742.754920964803 490.57006209652525Q742.754920964803 490.57006209652525 743.7772967649503 490.57006209652525Q744.7996725650975 490.57006209652525 744.7996725650975 490.57006209652525L744.7996725650975 490.57006209652525L744.7996725650975 492.1362548116445L732.2701308441435 492.1362548116445ZM682.3042326965199 386.57051527728777L693.1153129661625 386.57051527728777L693.1153129661625 387.04907416246306Q689.1998311783643 387.2013428986552 686.5242519567023 389.8551694437184Q683.8704254116392 392.53074866538043 683.8704254116392 396.44623045317854L683.8704254116392 396.44623045317854L683.8704254116392 399.1000569982417L682.3042326965199 399.25232573443384L682.3042326965199 386.57051527728777ZM682.3042326965199 384.0689574684167L682.3042326965199 379.52264805925114Q683.8704254116392 380.1534756806186 687.0898215482732 380.7843033019861Q690.2874650083083 381.41513092335356 694.2029467961064 381.87193713193005Q698.1184285839045 382.35049601710534 701.4030827503351 382.35049601710534L701.4030827503351 382.35049601710534L682.3042326965199 384.0689574684167ZM803.6841681182613 398.1646919044899L803.6841681182613 398.1646919044899L823.8924046786193 398.1646919044899Q831.2448093690402 398.1646919044899 837.1180320507374 399.8831533558013Q842.9912547324345 401.6016148071127 847.1460159628202 404.90802165014225Q851.300777193206 408.1926758165729 853.4977975296928 412.8912539619306Q855.6730651895806 417.5898321072883 855.6730651895806 423.5283128187821L855.6730651895806 423.5283128187821Q855.6730651895806 430.11937382824226 852.5406797593421 435.75331706735176Q849.4082943291037 441.38726030646126 843.8613617963896 444.99820462187506Q838.2926765870768 448.58739626069 831.2448093690402 449.3704926182496L831.2448093690402 449.3704926182496Q833.9203885907023 450.47987912479243 837.4443221997205 454.24309217639836Q840.9682558087388 457.98455255140544 843.4698136176098 461.59549686681925L843.4698136176098 461.59549686681925Q843.4698136176098 461.59549686681925 845.4928125413055 464.33633411827793Q847.5375641416001 467.0771713697366 850.756960278234 471.07966386393025Q853.9546037382692 475.060403681525 857.0869891685077 478.6713479969388L857.0869891685077 478.6713479969388Q860.3716433349383 482.26053963575373 863.1124805863969 484.93611885741575Q865.8533178378557 487.5899454024789 869.0727139744897 489.0908800878015Q872.2921101111236 490.57006209652525 876.5121293713061 490.57006209652525L876.5121293713061 490.57006209652525L876.5121293713061 492.1362548116445L871.6612824897562 492.1362548116445Q863.0472225566003 492.1362548116445 857.4785373472874 489.9392344751578Q851.9316048145735 487.74221413867105 848.4729292353518 484.544570678636Q845.036006332729 481.32517454200195 842.534448523858 478.3450578479556L842.534448523858 478.3450578479556Q841.9036209024906 477.561961490396 839.6195898596084 474.3643180303609Q837.357311493325 471.14492189372686 834.7034849482618 467.38170884212093Q832.0279057265998 463.64024846711385 829.830885390113 460.573121066672Q827.6556177302252 457.52774634282906 827.1770588450499 456.89691872146153L827.1770588450499 456.89691872146153Q824.0446734148114 452.8291681974713 819.9769228908212 449.6097720608373Q815.909172366831 446.4121286008022 811.3628629576654 446.4121286008022L811.3628629576654 446.4121286008022L811.3628629576654 444.84593588568293Q811.3628629576654 444.84593588568293 813.8644207665363 444.91119391547954Q816.3659785754073 444.99820462187506 820.2814603632055 444.84593588568293L820.2814603632055 444.84593588568293Q824.675501036179 444.6719144728919 829.0477890325535 444.12809755791994Q833.4418297055269 443.584280642948 837.2703007869295 440.7564326850938Q841.120524544931 437.9503374038385 843.3175448814177 431.35927639437836L843.3175448814177 431.35927639437836Q843.9266198261862 429.6408149430669 844.2529099751695 427.29152587038806Q844.5574474475537 424.9422367977092 844.4051787113616 422.4406789888382L844.4051787113616 422.4406789888382Q844.2529099751695 418.04663831586475 842.7519752898468 414.609715413242Q841.2727932811231 411.1727925106192 838.5319560296645 408.64948202514927Q835.7911187782058 406.1479242162783 832.0279057265998 404.7340002373512Q828.2646926749939 403.341828935023 823.5661145296361 403.16780752223195L823.5661145296361 403.16780752223195Q816.2137098392152 402.86327004984764 810.7320353362978 403.01553878603977Q805.2503608333805 403.16780752223195 805.2503608333805 403.01553878603977L805.2503608333805 403.01553878603977Q805.2503608333805 402.86327004984764 804.8588126546007 401.6886255135082Q804.4672644758209 400.5139809771688 804.075716297041 399.33933644082936Q803.6841681182613 398.1646919044899 803.6841681182613 398.1646919044899ZM795.5486670702808 398.1646919044899L805.5548983057648 398.1646919044899L805.5548983057648 492.1362548116445L795.5486670702808 492.1362548116445L795.5486670702808 398.1646919044899ZM795.7009358064729 482.10827089956155L796.0054732788572 482.10827089956155L797.8979561429596 492.1362548116445L784.585318064446 492.1362548116445L784.585318064446 490.57006209652525Q784.585318064446 490.57006209652525 785.6729518943899 490.57006209652525Q786.7605857243339 490.57006209652525 786.7605857243339 490.57006209652525L786.7605857243339 490.57006209652525Q790.5237987759399 490.57006209652525 793.0253565848109 488.06850428765426Q795.5486670702808 485.5669464787832 795.7009358064729 482.10827089956155L795.7009358064729 482.10827089956155ZM797.8979561429596 398.1646919044899L796.0054732788572 408.0404070803807L795.7009358064729 408.0404070803807Q795.5486670702808 404.4294627649669 793.0253565848109 402.08017369228804Q790.5237987759399 399.7308846196092 786.7605857243339 399.7308846196092L786.7605857243339 399.7308846196092Q786.7605857243339 399.7308846196092 785.6729518943899 399.7308846196092Q784.585318064446 399.7308846196092 784.585318064446 399.7308846196092L784.585318064446 399.7308846196092L784.585318064446 398.1646919044899L797.8979561429596 398.1646919044899ZM803.205609233086 492.1362548116445L805.0980920971883 482.10827089956155L805.5548983057648 482.10827089956155Q805.7289197185559 485.5669464787832 808.2304775274268 488.06850428765426Q810.7320353362978 490.57006209652525 814.4952483879039 490.57006209652525L814.4952483879039 490.57006209652525Q814.4952483879039 490.57006209652525 815.5176241880511 490.57006209652525Q816.5182473115995 490.57006209652525 816.5182473115995 490.57006209652525L816.5182473115995 490.57006209652525L816.6922687243905 492.1362548116445L803.205609233086 492.1362548116445ZM895.6109794251213 398.1646919044899L905.4866946010121 398.1646919044899L905.4866946010121 492.1362548116445L895.6109794251213 492.1362548116445L895.6109794251213 398.1646919044899ZM895.6109794251213 482.10827089956155L896.0895383102966 482.10827089956155L896.0895383102966 492.1362548116445L882.776900231783 492.1362548116445L882.776900231783 490.57006209652525Q882.776900231783 490.57006209652525 883.864534061727 490.57006209652525Q884.9739205682697 490.57006209652525 884.9739205682697 490.57006209652525L884.9739205682697 490.57006209652525Q889.3462085646444 490.57006209652525 892.4133359650862 488.06850428765426Q895.4587106889292 485.5669464787832 895.6109794251213 482.10827089956155L895.6109794251213 482.10827089956155ZM905.0081357158367 492.1362548116445L905.0081357158367 482.10827089956155L905.4866946010121 482.10827089956155Q905.6389633372042 485.5669464787832 908.706090737646 488.06850428765426Q911.751465461489 490.57006209652525 916.1455061344625 490.57006209652525L916.1455061344625 490.57006209652525Q916.1455061344625 490.57006209652525 917.1461292580109 490.57006209652525Q918.1685050581582 490.57006209652525 918.1685050581582 490.57006209652525L918.1685050581582 490.57006209652525L918.3207737943503 492.1362548116445L905.0081357158367 492.1362548116445ZM905.4866946010121 408.1926758165729L905.0081357158367 408.1926758165729L905.0081357158367 398.1646919044899L918.3207737943503 398.1646919044899L918.1685050581582 399.7308846196092Q918.1685050581582 399.7308846196092 917.1461292580109 399.7308846196092Q916.1455061344625 399.7308846196092 916.1455061344625 399.7308846196092L916.1455061344625 399.7308846196092Q911.751465461489 399.7308846196092 908.706090737646 402.1671843986835Q905.6389633372042 404.581731501159 905.4866946010121 408.1926758165729L905.4866946010121 408.1926758165729ZM896.0895383102966 398.1646919044899L896.0895383102966 408.1926758165729L895.6109794251213 408.1926758165729Q895.4587106889292 404.581731501159 892.4133359650862 402.1671843986835Q889.3462085646444 399.7308846196092 884.9739205682697 399.7308846196092L884.9739205682697 399.7308846196092Q884.8216518320776 399.7308846196092 883.7992760319303 399.7308846196092Q882.776900231783 399.7308846196092 882.776900231783 399.7308846196092L882.776900231783 399.7308846196092L882.776900231783 398.1646919044899L896.0895383102966 398.1646919044899ZM980.6639449267357 480.3898094482502L978.0101183816726 494.33327514813124L934.9398187158935 399.1000569982417L947.2953390240564 399.1000569982417L980.6639449267357 480.3898094482502ZM979.4022896840008 494.33327514813124L978.0101183816726 494.33327514813124L976.9007318751298 483.5221948784887L1012.7708955866804 398.6432507896652L1022.6466107625711 398.6432507896652L985.5147918082857 478.1927891117635Q985.5147918082857 478.1927891117635 984.6664374209294 480.0852719758659Q983.7963303569743 481.9560021633694 982.6216858206349 484.6968394148281Q981.4470412842954 487.4376766662868 980.5116761905437 490.09150321134996Q979.5763110967919 492.767082433012 979.4022896840008 494.33327514813124L979.4022896840008 494.33327514813124ZM1017.4694737320381 409.60659979549996L1008.2245861775148 409.60659979549996Q1009.9430476288261 404.90802165014225 1007.7677799689382 402.3194531348757Q1005.5707596324514 399.7308846196092 1002.7429116745973 399.7308846196092L1002.7429116745973 399.7308846196092L1001.6552778446534 399.7308846196092L1001.6552778446534 398.1646919044899L1031.412939431919 398.1646919044899L1031.412939431919 399.7308846196092Q1031.412939431919 399.7308846196092 1030.7821118105517 399.7308846196092Q1030.151284189184 399.7308846196092 1030.151284189184 399.7308846196092L1030.151284189184 399.7308846196092Q1026.8666300227535 399.7308846196092 1023.4297071201306 401.9931629858925Q1019.9710315409089 404.2771940287747 1017.4694737320381 409.60659979549996L1017.4694737320381 409.60659979549996ZM951.5371109608376 409.60659979549996L951.5371109608376 409.60659979549996L939.6383968612511 409.60659979549996Q937.2891077885722 404.2771940287747 933.8304322093506 401.9931629858925Q930.3935093067278 399.7308846196092 927.2611238764894 399.7308846196092L927.2611238764894 399.7308846196092Q927.2611238764894 399.7308846196092 926.6302962551218 399.7308846196092Q925.9994686337544 399.7308846196092 925.9994686337544 399.7308846196092L925.9994686337544 399.7308846196092L925.9994686337544 398.1646919044899L958.1064192936989 398.1646919044899L958.1064192936989 399.7308846196092L956.8665167275628 399.7308846196092Q954.1909375059008 399.7308846196092 952.0809278758095 402.3194531348757Q949.9709182457184 404.90802165014225 951.5371109608376 409.60659979549996ZM1052.0779822008535 398.1646919044899L1061.9536973767442 398.1646919044899L1061.9536973767442 492.1362548116445L1052.0779822008535 492.1362548116445L1052.0779822008535 398.1646919044899ZM1052.0779822008535 482.10827089956155L1052.5565410860288 482.10827089956155L1052.5565410860288 492.1362548116445L1039.2439030075152 492.1362548116445L1039.2439030075152 490.57006209652525Q1039.2439030075152 490.57006209652525 1040.3315368374592 490.57006209652525Q1041.440923344002 490.57006209652525 1041.440923344002 490.57006209652525L1041.440923344002 490.57006209652525Q1045.8132113403765 490.57006209652525 1048.8803387408184 488.06850428765426Q1051.9257134646614 485.5669464787832 1052.0779822008535 482.10827089956155L1052.0779822008535 482.10827089956155ZM1061.475138491569 492.1362548116445L1061.475138491569 482.10827089956155L1061.9536973767442 482.10827089956155Q1062.1059661129364 485.5669464787832 1065.1513408367794 488.06850428765426Q1068.2184682372213 490.57006209652525 1072.5907562335958 490.57006209652525L1072.5907562335958 490.57006209652525Q1072.5907562335958 490.57006209652525 1073.613132033743 490.57006209652525Q1074.6355078338904 490.57006209652525 1074.6355078338904 490.57006209652525L1074.6355078338904 490.57006209652525L1074.7877765700825 492.1362548116445L1061.475138491569 492.1362548116445ZM1061.9536973767442 408.1926758165729L1061.475138491569 408.1926758165729L1061.475138491569 398.1646919044899L1074.7877765700825 398.1646919044899L1074.6355078338904 399.7308846196092Q1074.6355078338904 399.7308846196092 1073.613132033743 399.7308846196092Q1072.5907562335958 399.7308846196092 1072.5907562335958 399.7308846196092L1072.5907562335958 399.7308846196092Q1068.2184682372213 399.7308846196092 1065.1513408367794 402.1671843986835Q1062.1059661129364 404.581731501159 1061.9536973767442 408.1926758165729L1061.9536973767442 408.1926758165729ZM1052.5565410860288 398.1646919044899L1052.5565410860288 408.1926758165729L1052.0779822008535 408.1926758165729Q1051.9257134646614 404.581731501159 1048.8803387408184 402.1671843986835Q1045.8132113403765 399.7308846196092 1041.440923344002 399.7308846196092L1041.440923344002 399.7308846196092Q1041.266901931211 399.7308846196092 1040.2662788076625 399.7308846196092Q1039.2439030075152 399.7308846196092 1039.2439030075152 399.7308846196092L1039.2439030075152 399.7308846196092L1039.2439030075152 398.1646919044899L1052.5565410860288 398.1646919044899ZM1133.2154659146697 409.9111372678842L1135.869292459733 395.9676715680032L1178.9395921255123 491.2008897178927L1166.5623191407503 491.2008897178927L1133.2154659146697 409.9111372678842ZM1096.4099371093675 480.6943469206345L1105.6548246638908 480.6943469206345Q1103.9146105359807 485.3929250659922 1106.1116308724672 487.98149358125875Q1108.308651208954 490.57006209652525 1111.1364991668083 490.57006209652525L1111.1364991668083 490.57006209652525L1112.3764017329445 490.57006209652525L1112.3764017329445 492.1362548116445L1082.4664714094865 492.1362548116445L1082.4664714094865 490.57006209652525Q1082.4664714094865 490.57006209652525 1083.0972990308542 490.57006209652525Q1083.7281266522214 490.57006209652525 1083.7281266522214 490.57006209652525L1083.7281266522214 490.57006209652525Q1087.0127808186521 490.57006209652525 1090.449703721275 488.3077837302419Q1093.9083793004966 486.0237526873597 1096.4099371093675 480.6943469206345L1096.4099371093675 480.6943469206345ZM1134.4553684808059 395.9676715680032L1135.869292459733 395.9676715680032L1136.9786789662758 406.77875183764576L1101.1085152547253 491.6576959264692L1091.2328000788345 491.6576959264692L1128.36461903312 412.10815760437094Q1128.36461903312 412.10815760437094 1129.2129734204761 410.2156747402686Q1130.0830804844313 408.344944552765 1131.2577250207707 405.6041073013063Q1132.4323695571102 402.86327004984764 1133.367734650862 400.20944350478453Q1134.3030997446137 397.53386428312245 1134.4553684808059 395.9676715680032L1134.4553684808059 395.9676715680032ZM1112.8549606181195 455.6352634787266L1154.3590675687797 455.6352634787266L1154.3590675687797 460.3338416240843L1112.8549606181195 460.3338416240843L1112.8549606181195 455.6352634787266ZM1162.3422998805681 480.6943469206345L1162.3422998805681 480.6943469206345L1174.2410139801545 480.6943469206345Q1176.5903030528334 486.0237526873597 1180.048978632055 488.3077837302419Q1183.4859015346779 490.57006209652525 1186.6182869649163 490.57006209652525L1186.6182869649163 490.57006209652525Q1186.6182869649163 490.57006209652525 1187.2491145862837 490.57006209652525Q1187.8799422076513 490.57006209652525 1187.8799422076513 490.57006209652525L1187.8799422076513 490.57006209652525L1187.8799422076513 492.1362548116445L1155.7729915477066 492.1362548116445L1155.7729915477066 490.57006209652525L1157.0128941138428 490.57006209652525Q1159.6884733355048 490.57006209652525 1161.8637409953926 487.98149358125875Q1164.0607613318793 485.3929250659922 1162.3422998805681 480.6943469206345ZM1290.1392748989786 494.33327514813124L1290.1392748989786 494.33327514813124L1291.7054676140976 490.26552462414094Q1294.5333155719518 490.26552462414094 1299.1448830109139 491.3531584540849Q1303.778203126475 492.4407922840288 1309.868952574161 494.39853317792785Q1315.981454698446 496.35627407182693 1323.4208700952624 499.1841220296811Q1330.8602854920787 502.0119699875353 1339.3220766890424 505.4488928901581Q1347.7838678860062 508.8858157927809 1357.1810241767216 512.9753189933699L1357.1810241767216 512.9753189933699Q1365.9473528460696 516.716779368377 1376.2146162007402 518.5222515260839Q1386.460126878812 520.327723683791 1396.96666967607 519.6968960624233Q1407.4514597967295 519.0660684410559 1416.9356267938406 515.5421348320376Q1426.3980411143525 512.0182012230193 1433.5981770685812 505.2966241539659L1433.5981770685812 505.2966241539659L1434.2290046899489 506.0797205115255Q1433.1413708600048 509.0598372055719 1428.9866096296191 513.3668671721498Q1424.8318483992334 517.6738971387277 1417.936249917389 521.6546369563225Q1411.0624041121432 525.6571294505161 1401.7305058512247 527.9194078167994Q1392.4203602669045 530.2034388596817 1380.913194346098 529.2463210893311Q1369.3842757486923 528.3109559955792 1355.9193689339868 522.5247440202777L1355.9193689339868 522.5247440202777Q1348.719232979758 519.3923585900391 1340.5837319317775 515.1505866532578Q1332.426478207198 510.9305673930754 1323.812418274042 506.71054813289305Q1315.1983583408864 502.4687761961117 1306.671309114126 499.09711132328556Q1298.1225072107668 495.7471991270583 1290.1392748989786 494.33327514813124ZM1291.85773635029 380.3057444168108L1291.85773635029 380.3057444168108Q1308.4767812718328 380.3057444168108 1321.0715810225834 387.4406223412429Q1333.688133449933 394.5537475890761 1340.8012586977661 407.40957945901323Q1347.9361366221983 420.2436586523515 1347.9361366221983 437.319509782471L1347.9361366221983 437.319509782471Q1347.9361366221983 454.39536091259055 1340.8012586977661 467.22944010592875Q1333.688133449933 480.0852719758659 1321.0063229927869 487.1983972236991Q1308.302759859042 494.33327514813124 1291.85773635029 494.33327514813124L1291.85773635029 494.33327514813124Q1275.2604441053456 494.33327514813124 1262.5786336481997 487.1983972236991Q1249.8968231910535 480.0852719758659 1242.7619452666213 467.22944010592875Q1235.6488200187882 454.39536091259055 1235.6488200187882 437.319509782471L1235.6488200187882 437.319509782471Q1235.6488200187882 420.2436586523515 1242.7619452666213 407.40957945901323Q1249.8968231910535 394.5537475890761 1262.5786336481997 387.4406223412429Q1275.2604441053456 380.3057444168108 1291.85773635029 380.3057444168108ZM1291.85773635029 489.6346970027735L1291.85773635029 489.6346970027735Q1305.1703744288034 489.6346970027735 1315.1331003110897 483.04363599331333Q1325.0740735167772 476.47432766045205 1330.6210060494911 464.72788229705776Q1336.189691258804 452.9814369336634 1336.189691258804 437.319509782471L1336.189691258804 437.319509782471Q1336.189691258804 421.65758263127856 1330.6210060494911 409.9111372678842Q1325.0740735167772 398.1646919044899 1315.1331003110897 391.59538357162864Q1305.1703744288034 385.0043225621685 1291.85773635029 385.0043225621685L1291.85773635029 385.0043225621685Q1278.5450982717762 385.0043225621685 1268.5388670362922 391.59538357162864Q1258.5108831242092 398.1646919044899 1252.9421979148965 409.9111372678842Q1247.3952653821825 421.65758263127856 1247.3952653821825 437.319509782471L1247.3952653821825 437.319509782471Q1247.3952653821825 452.9814369336634 1253.0292086212921 464.72788229705776Q1258.6631518604013 476.47432766045205 1268.6911357724844 483.04363599331333Q1278.7191196845674 489.6346970027735 1291.85773635029 489.6346970027735ZM1373.4737789492815 398.1646919044899L1383.4800101847654 398.1646919044899L1383.4800101847654 457.3754776066368Q1383.4800101847654 472.558845872654 1391.2457157305653 481.32517454200195Q1398.989668599766 490.09150321134996 1412.4545754144717 490.09150321134996L1412.4545754144717 490.09150321134996Q1427.3334062081044 490.09150321134996 1435.8822081114636 481.8037334271773Q1444.409257338224 473.4942109664058 1444.409257338224 459.09393905794826L1444.409257338224 459.09393905794826L1444.409257338224 398.1646919044899L1451.6093932924528 398.1646919044899L1451.6093932924528 459.09393905794826Q1451.6093932924528 475.38669383050814 1441.2116138781887 484.8491081510203Q1430.792081787326 494.33327514813124 1412.6285968272628 494.33327514813124L1412.6285968272628 494.33327514813124Q1394.6173806033912 494.33327514813124 1384.0455797763366 484.93611885741575Q1373.4737789492815 475.5389625667003 1373.4737789492815 459.2462077941404L1373.4737789492815 459.2462077941404L1373.4737789492815 398.1646919044899ZM1363.5980637733908 398.1646919044899L1373.7783164216657 398.1646919044899L1373.7783164216657 406.47421436526145L1373.4737789492815 406.47421436526145Q1373.2997575364907 403.6463664074073 1371.1897479063994 401.6886255135082Q1369.079738276308 399.7308846196092 1365.9473528460696 399.7308846196092L1365.9473528460696 399.7308846196092Q1365.9473528460696 399.7308846196092 1364.7727083097302 399.7308846196092Q1363.5980637733908 399.7308846196092 1363.5980637733908 399.7308846196092L1363.5980637733908 399.7308846196092L1363.5980637733908 398.1646919044899ZM1383.1754727123812 398.1646919044899L1393.3557253606564 398.1646919044899L1393.3557253606564 399.7308846196092Q1393.3557253606564 399.7308846196092 1392.1810808243167 399.7308846196092Q1391.0064362879775 399.7308846196092 1391.0064362879775 399.7308846196092L1391.0064362879775 399.7308846196092Q1388.0263195939312 399.7308846196092 1385.7640412276478 401.6886255135082Q1383.4800101847654 403.6463664074073 1383.4800101847654 406.47421436526145L1383.4800101847654 406.47421436526145L1383.1754727123812 406.47421436526145L1383.1754727123812 398.1646919044899ZM1434.5552948389318 398.1646919044899L1444.735547487207 398.1646919044899L1444.735547487207 406.47421436526145L1444.409257338224 406.47421436526145Q1444.409257338224 403.6463664074073 1442.212237001737 401.6886255135082Q1440.0369693418493 399.7308846196092 1436.9045839116109 399.7308846196092L1436.9045839116109 399.7308846196092Q1436.9045839116109 399.7308846196092 1435.7299393752714 399.7308846196092Q1434.5552948389318 399.7308846196092 1434.5552948389318 399.7308846196092L1434.5552948389318 399.7308846196092L1434.5552948389318 398.1646919044899ZM1451.3048558200683 398.1646919044899L1461.4851084683435 398.1646919044899L1461.4851084683435 399.7308846196092Q1461.4851084683435 399.7308846196092 1460.310463932004 399.7308846196092Q1459.1358193956646 399.7308846196092 1459.1358193956646 399.7308846196092L1459.1358193956646 399.7308846196092Q1456.1557027016183 399.7308846196092 1453.9586823651316 401.6886255135082Q1451.7834147052436 403.6463664074073 1451.6093932924528 406.47421436526145L1451.6093932924528 406.47421436526145L1451.3048558200683 406.47421436526145L1451.3048558200683 398.1646919044899ZM1488.4149220977547 398.1646919044899L1498.2906372736456 398.1646919044899L1498.2906372736456 492.1362548116445L1488.4149220977547 492.1362548116445L1488.4149220977547 398.1646919044899ZM1488.4149220977547 482.10827089956155L1488.8934809829302 482.10827089956155L1488.8934809829302 492.1362548116445L1475.5808429044166 492.1362548116445L1475.5808429044166 490.57006209652525Q1475.5808429044166 490.57006209652525 1476.6684767343604 490.57006209652525Q1477.7778632409033 490.57006209652525 1477.7778632409033 490.57006209652525L1477.7778632409033 490.57006209652525Q1482.150151237278 490.57006209652525 1485.2172786377196 488.06850428765426Q1488.2626533615626 485.5669464787832 1488.4149220977547 482.10827089956155L1488.4149220977547 482.10827089956155ZM1497.8120783884701 492.1362548116445L1497.8120783884701 482.10827089956155L1498.2906372736456 482.10827089956155Q1498.4429060098378 485.5669464787832 1501.5100334102797 488.06850428765426Q1504.5554081341227 490.57006209652525 1508.949448807096 490.57006209652525L1508.949448807096 490.57006209652525Q1508.949448807096 490.57006209652525 1509.9500719306445 490.57006209652525Q1510.9724477307918 490.57006209652525 1510.9724477307918 490.57006209652525L1510.9724477307918 490.57006209652525L1511.124716466984 492.1362548116445L1497.8120783884701 492.1362548116445ZM1498.2906372736456 408.1926758165729L1497.8120783884701 408.1926758165729L1497.8120783884701 398.1646919044899L1511.124716466984 398.1646919044899L1510.9724477307918 399.7308846196092Q1510.9724477307918 399.7308846196092 1509.9500719306445 399.7308846196092Q1508.949448807096 399.7308846196092 1508.949448807096 399.7308846196092L1508.949448807096 399.7308846196092Q1504.5554081341227 399.7308846196092 1501.5100334102797 402.1671843986835Q1498.4429060098378 404.581731501159 1498.2906372736456 408.1926758165729L1498.2906372736456 408.1926758165729ZM1488.8934809829302 398.1646919044899L1488.8934809829302 408.1926758165729L1488.4149220977547 408.1926758165729Q1488.2626533615626 404.581731501159 1485.2172786377196 402.1671843986835Q1482.150151237278 399.7308846196092 1477.7778632409033 399.7308846196092L1477.7778632409033 399.7308846196092Q1477.6255945047112 399.7308846196092 1476.603218704564 399.7308846196092Q1475.5808429044166 399.7308846196092 1475.5808429044166 399.7308846196092L1475.5808429044166 399.7308846196092L1475.5808429044166 398.1646919044899L1488.8934809829302 398.1646919044899ZM1601.0285288501482 395.9676715680032L1601.0285288501482 395.9676715680032Q1601.0285288501482 395.9676715680032 1601.0285288501482 396.6855098957662Q1601.0285288501482 397.38159554693027 1601.0285288501482 397.38159554693027L1601.0285288501482 397.38159554693027L1538.3808202453786 492.1362548116445L1527.4174712395438 492.1362548116445L1527.4174712395438 490.72233083271743L1585.8451605841312 402.7110013136555L1529.7667603122227 402.7110013136555L1529.7667603122227 398.0124231682978L1583.34360277526 398.0124231682978Q1586.6282569416908 398.0124231682978 1590.3914699932966 397.6861330193146Q1594.1329303683037 397.38159554693027 1597.1130470623502 396.903036661755Q1600.0931637563965 396.44623045317854 1601.0285288501482 395.9676715680032ZM1537.597723887819 487.4376766662868L1602.4424528290751 487.4376766662868L1601.3548189991316 492.1362548116445L1537.597723887819 492.1362548116445L1537.597723887819 487.4376766662868ZM1609.3380513109198 469.7309979147998L1610.9042440260391 469.7309979147998L1602.4424528290751 492.1362548116445L1578.9495621022866 492.1362548116445L1584.278967869012 487.4376766662868Q1591.957662708416 487.28540793009466 1596.5692301473782 485.08838759360793Q1601.1807975863403 482.8913672571212 1604.1609142803868 478.9106274395265Q1607.1410309744333 474.90813494533285 1609.3380513109198 469.7309979147998L1609.3380513109198 469.7309979147998ZM1529.7667603122227 413.19579143431486L1529.7667603122227 402.38471116467235L1539.3161853391302 402.38471116467235L1539.3161853391302 402.7110013136555Q1535.8792624365074 402.86327004984764 1533.6822421000206 405.125548416131Q1531.485221763534 407.40957945901323 1531.485221763534 410.846502361636L1531.485221763534 410.846502361636L1531.485221763534 413.19579143431486L1529.7667603122227 413.19579143431486ZM1529.7667603122227 399.578615883417L1529.7667603122227 395.51086535942676Q1531.1806842911496 395.9676715680032 1534.1608009851961 396.51148848297515Q1537.1409176792424 397.077058074546 1540.6648512882607 397.4686062533258Q1544.1887848972792 397.8601544321056 1547.3211703275174 398.0124231682978L1547.3211703275174 398.0124231682978L1529.7667603122227 399.578615883417ZM1696.2617470000378 395.9676715680032L1696.2617470000378 395.9676715680032Q1696.2617470000378 395.9676715680032 1696.2617470000378 396.6855098957662Q1696.2617470000378 397.38159554693027 1696.2617470000378 397.38159554693027L1696.2617470000378 397.38159554693027L1633.614038395268 492.1362548116445L1622.6506893894334 492.1362548116445L1622.6506893894334 490.72233083271743L1681.056626057422 402.7110013136555L1624.9999784621123 402.7110013136555L1624.9999784621123 398.0124231682978L1678.555068248551 398.0124231682978Q1681.8397224149815 398.0124231682978 1685.6029354665875 397.6861330193146Q1689.3661485181933 397.38159554693027 1692.3462652122396 396.903036661755Q1695.3263819062859 396.44623045317854 1696.2617470000378 395.9676715680032ZM1632.8309420377086 487.4376766662868L1697.6756709789647 487.4376766662868L1696.566284472422 492.1362548116445L1632.8309420377086 492.1362548116445L1632.8309420377086 487.4376766662868ZM1704.5495167842105 469.7309979147998L1706.1157094993296 469.7309979147998L1697.6756709789647 492.1362548116445L1674.1827802521764 492.1362548116445L1679.4904333423024 487.4376766662868Q1687.1691281817066 487.28540793009466 1691.8024482972678 485.08838759360793Q1696.4140157362299 482.8913672571212 1699.3941324302764 478.9106274395265Q1702.3742491243227 474.90813494533285 1704.5495167842105 469.7309979147998L1704.5495167842105 469.7309979147998ZM1624.9999784621123 413.19579143431486L1624.9999784621123 402.38471116467235L1634.5494034890198 402.38471116467235L1634.5494034890198 402.7110013136555Q1631.112480586397 402.86327004984764 1628.9154602499104 405.125548416131Q1626.7184399134237 407.40957945901323 1626.7184399134237 410.846502361636L1626.7184399134237 410.846502361636L1626.7184399134237 413.19579143431486L1624.9999784621123 413.19579143431486ZM1624.9999784621123 399.578615883417L1624.9999784621123 395.51086535942676Q1626.4139024410392 395.9676715680032 1629.3722664584868 396.51148848297515Q1632.352383152533 397.077058074546 1635.8763167615514 397.4686062533258Q1639.4002503705697 397.8601544321056 1642.5326358008083 398.0124231682978L1642.5326358008083 398.0124231682978L1624.9999784621123 399.578615883417ZM1729.9348903751015 398.1646919044899L1739.9628742871846 398.1646919044899L1739.9628742871846 492.1362548116445L1729.9348903751015 492.1362548116445L1729.9348903751015 398.1646919044899ZM1739.6365841382012 487.28540793009466L1782.0760561826128 487.28540793009466L1781.7715187102285 492.1362548116445L1739.6365841382012 492.1362548116445L1739.6365841382012 487.28540793009466ZM1739.6365841382012 442.80118428538833L1774.723651492192 442.80118428538833L1774.723651492192 447.4997624307461L1739.6365841382012 447.4997624307461L1739.6365841382012 442.80118428538833ZM1739.6365841382012 398.1646919044899L1781.9237874464206 398.1646919044899L1781.9237874464206 403.01553878603977L1739.6365841382012 403.01553878603977L1739.6365841382012 398.1646919044899ZM1789.2979448134406 469.7309979147998L1790.8641375285597 469.7309979147998L1782.250077595404 492.1362548116445L1758.430896719632 492.1362548116445L1763.7603024863574 487.28540793009466Q1771.5912660619538 487.28540793009466 1776.3768549137067 485.0013768872124Q1781.1406910888609 482.7390985209291 1784.1208077829074 478.73660602673544Q1787.1009244769539 474.7558662091407 1789.2979448134406 469.7309979147998L1789.2979448134406 469.7309979147998ZM1766.5881504442114 447.1952249583618L1774.723651492192 447.1952249583618L1774.723651492192 456.11382236390193L1773.0051900408807 456.11382236390193L1773.0051900408807 454.0690707636074Q1773.0051900408807 451.41524421854416 1771.4389973257616 449.45750332464513Q1769.872804610642 447.4997624307461 1766.5881504442114 447.4997624307461L1766.5881504442114 447.4997624307461L1766.5881504442114 447.1952249583618ZM1773.0051900408807 434.1871243522325L1774.723651492192 434.1871243522325L1774.723651492192 443.10572175777264L1766.5881504442114 443.10572175777264L1766.5881504442114 442.80118428538833Q1769.872804610642 442.80118428538833 1771.4389973257616 440.8434433914893Q1773.0051900408807 438.8857024975902 1773.0051900408807 436.2318759525271L1773.0051900408807 436.2318759525271L1773.0051900408807 434.1871243522325ZM1772.374362419513 402.5587325774634L1781.9237874464206 402.5587325774634L1781.9237874464206 413.34806017050704L1780.2053259951094 413.34806017050704L1780.2053259951094 410.9987710978282Q1780.2053259951094 407.7141169313975 1778.0953163650183 405.3648278587186Q1775.9853067349272 403.01553878603977 1772.374362419513 403.01553878603977L1772.374362419513 403.01553878603977L1772.374362419513 402.5587325774634ZM1781.9237874464206 395.6631340956189L1781.9237874464206 395.6631340956189L1781.9237874464206 399.7308846196092L1764.0648399587417 398.1646919044899Q1768.9374395168907 398.1646919044899 1774.4191140198077 397.29458484053475Q1779.9007885227252 396.44623045317854 1781.9237874464206 395.6631340956189ZM1729.9348903751015 482.10827089956155L1730.2394278474858 482.10827089956155L1732.2841794477804 492.1362548116445L1718.6452512202836 492.1362548116445L1718.6452512202836 490.57006209652525Q1718.6452512202836 490.57006209652525 1719.7546377268263 490.57006209652525Q1720.8422715567704 490.57006209652525 1720.8422715567704 490.57006209652525L1720.8422715567704 490.57006209652525Q1724.7577533445683 490.57006209652525 1727.2593111534393 488.06850428765426Q1729.7826216389094 485.5669464787832 1729.9348903751015 482.10827089956155L1729.9348903751015 482.10827089956155ZM1732.2841794477804 398.1646919044899L1730.2394278474858 408.0404070803807L1729.9348903751015 408.0404070803807Q1729.7826216389094 404.4294627649669 1727.2593111534393 402.08017369228804Q1724.7577533445683 399.7308846196092 1720.8422715567704 399.7308846196092L1720.8422715567704 399.7308846196092Q1720.8422715567704 399.7308846196092 1719.7546377268263 399.7308846196092Q1718.6452512202836 399.7308846196092 1718.6452512202836 399.7308846196092L1718.6452512202836 399.7308846196092L1718.6452512202836 398.1646919044899L1732.2841794477804 398.1646919044899ZM1832.1942230664285 395.9676715680032L1832.1942230664285 395.9676715680032Q1836.5882637394025 395.9676715680032 1839.8729179058328 396.29396171698636Q1843.1575720722635 396.59849918937067 1845.593871851338 396.9900473681505Q1848.030171630412 397.38159554693027 1849.8138911115202 397.9254124619023Q1851.619363269227 398.4692293768742 1853.0332872481545 398.9477882620495L1853.0332872481545 398.9477882620495L1853.1855559843466 414.4574466770498L1851.3148257968428 414.4574466770498Q1851.3148257968428 408.0404070803807 1846.9207851238693 404.3424520585714Q1842.548497127495 400.6662497133609 1833.3036095729717 400.6662497133609L1833.3036095729717 400.6662497133609Q1825.4726459973754 400.6662497133609 1819.9039607880622 404.97327967993886Q1814.3570282553487 409.2803096465168 1814.5092969915404 415.54508050699377L1814.5092969915404 415.54508050699377Q1814.5092969915404 417.5898321072883 1815.0531139065124 419.69984173737953Q1815.5969308214844 421.80985136747074 1816.9238440940162 423.8546029677653Q1818.2725100431467 425.877601891461 1820.6217991158255 427.92235349175553L1820.6217991158255 427.92235349175553L1852.2501908905947 452.35060931229594Q1855.8611352060084 455.33072600634233 1857.57959665732 459.94229344530453Q1859.2980581086313 464.57561356086563 1859.4503268448234 469.1219229700312L1859.4503268448234 469.1219229700312Q1859.6025955810155 475.99576877527676 1855.8611352060084 481.8037334271773Q1852.0979221544026 487.5899454024789 1845.7461405875301 490.9616102753051Q1839.4161116972564 494.33327514813124 1831.7374168578522 494.33327514813124L1831.7374168578522 494.33327514813124Q1827.1911074486866 494.33327514813124 1821.9487123883569 493.5501787905716Q1816.7063173280276 492.767082433012 1812.160007918862 491.1138790114972Q1807.6136985096964 489.48242826658134 1804.63358181565 486.95911778111144L1804.63358181565 486.95911778111144Q1804.1767756070735 484.7838501212236 1804.1767756070735 481.41218524839746Q1804.1767756070735 478.0405203755713 1804.720592522045 474.2773073239654Q1805.264409437017 470.5140942723594 1806.199774530769 467.55573025491196L1806.199774530769 467.55573025491196L1808.0922573948715 467.55573025491196Q1807.4614297735043 474.60359747294854 1810.115256318567 479.60671309069056Q1812.7908355402292 484.6098287084326 1817.9462198941633 487.1983972236991Q1823.1233569246965 489.78696573896565 1830.0189554065405 489.6346970027735L1830.0189554065405 489.6346970027735Q1839.7206491696406 489.3084068537903 1845.2893343789538 484.6968394148281Q1850.8362669116673 480.0852719758659 1850.8362669116673 472.4065771364618L1850.8362669116673 472.4065771364618Q1850.8362669116673 468.6433640848559 1849.509353639136 465.5979893610129Q1848.1824403666042 462.53086196057103 1845.2023236725581 459.87703541550786L1845.2023236725581 459.87703541550786L1813.8784693701732 435.75331706735176Q1809.4844286971997 431.99010401574577 1807.9182359820807 427.44379460658024Q1806.3520432669611 422.9192378740135 1806.3520432669611 418.82973467342435L1806.3520432669611 418.82973467342435Q1806.3520432669611 412.41269507675526 1809.8107188461827 407.2573107228211Q1813.2476417488056 402.08017369228804 1819.1208644305025 399.03479896844505Q1824.9940871121998 395.9676715680032 1832.1942230664285 395.9676715680032ZM1841.9176695061274 397.38159554693027L1852.8810185119623 397.38159554693027L1853.0332872481545 400.20944350478453L1841.9176695061274 400.20944350478453L1841.9176695061274 397.38159554693027Z " fill="#2d3d5c" transform="matrix(0.4705674749643398,0,0,0.4705674749643398,0,86.11503323802839)"/></g></svg>